<svg width="136" height="112" viewBox="0 0 136 112" fill="none" xmlns="http://www.w3.org/2000/svg">
<g clip-path="url(#clip0_79_13525)">
<path d="M65.2702 76.1207L52.0336 110.869C51.4747 112.327 49.4299 112.395 48.7892 110.964L0.164064 2.481C-0.422109 1.17234 0.709341 -0.245385 2.0998 0.040886L33.7531 6.37974C34.3121 6.48879 34.7755 6.87049 35.0073 7.3885L65.2293 74.7984C65.4201 75.221 65.4338 75.7118 65.2702 76.148V76.1207Z" fill="#8C5636"/>
<path d="M110.869 77.1432L98.0001 110.896C97.4548 112.314 95.4646 112.368 94.8511 110.991L47.6028 5.57552C47.0303 4.30775 48.1345 2.93093 49.4977 3.20356L80.2513 9.3652C80.7966 9.47425 81.2464 9.84232 81.4782 10.3467L110.841 75.8482C111.032 76.2571 111.046 76.7342 110.882 77.1568L110.869 77.1432Z" fill="#8C5636"/>
<path d="M114.359 37.9785L95.3556 38.183C93.1472 38.2103 91.4841 36.2064 91.9067 34.0389L95.5737 15.2541C95.8873 13.6455 97.2914 12.4732 98.9272 12.4459L119.321 12.1187C121.638 12.0778 123.342 14.2726 122.742 16.4946L117.671 35.4021C117.262 36.9152 115.913 37.9649 114.345 37.9785H114.359Z" fill="#8C5636"/>
<path d="M128.985 62.6794L117.48 62.8021C115.271 62.8293 113.608 60.8254 114.031 58.658L116.239 47.3162C116.553 45.7076 117.957 44.5353 119.593 44.508L131.929 44.3035C134.247 44.2626 135.951 46.4574 135.351 48.6794L132.298 60.0893C131.889 61.6025 130.539 62.6521 128.971 62.6658L128.985 62.6794Z" fill="#8C5636"/>
</g>
<defs>
<clipPath id="clip0_79_13525">
<rect width="135.488" height="112" fill="white"/>
</clipPath>
</defs>
</svg>
